<svg xmlns="http://www.w3.org/2000/svg" viewBox="0 0 512 512">
  <rect width="512" height="512" rx="96" fill="#1F3A33"/>
  <circle cx="256" cy="256" r="176" fill="none" stroke="#C9A34E" stroke-width="12"/>
  <path d="M256 142c44 44 68 82 68 116 0 39-30 70-68 70s-68-31-68-70c0-34 24-72 68-116Z" fill="#E8D9C5"/>
  <path d="M152 254c58 6 94 28 104 66-52 13-91-4-122-51l18-15Zm208 0-18 15c-31 47-70 64-122 51 10-38 46-60 104-66h36Z" fill="#C9A34E" opacity=".82"/>
  <text x="256" y="414" text-anchor="middle" fill="#F7F2EA" font-family="Georgia, serif" font-size="78" font-weight="700">JS</text>
</svg>
